<svg width="663" height="284" viewBox="0 0 663 284" fill="none" xmlns="http://www.w3.org/2000/svg">
<g filter="url(#filter0_di_364_159)">
<path d="M65.4409 108.874C65.4409 111.229 64.9897 113.441 64.0873 115.51C63.2069 117.579 61.9964 119.384 60.4557 120.924C58.915 122.465 57.1101 123.687 55.0412 124.589C52.9723 125.469 50.7603 125.91 48.4052 125.91C46.9965 125.91 45.6319 125.755 44.3113 125.447C43.0127 125.117 41.7802 124.666 40.6136 124.094C39.4471 123.499 38.3576 122.784 37.3452 121.948C36.3547 121.111 35.4633 120.176 34.6709 119.141C33.1082 121.21 31.1493 122.861 28.7943 124.094C26.4392 125.304 23.853 125.91 21.0357 125.91C18.6807 125.91 16.4687 125.469 14.3997 124.589C12.3308 123.687 10.526 122.465 8.98527 120.924C7.44457 119.384 6.22301 117.579 5.3206 115.51C4.4402 113.441 4 111.229 4 108.874V78.566H10.7351V108.874C10.7351 110.304 10.9992 111.647 11.5274 112.902C12.0777 114.134 12.815 115.213 13.7394 116.137C14.6859 117.062 15.7754 117.799 17.0079 118.349C18.2625 118.877 19.6051 119.141 21.0357 119.141C22.4224 119.141 23.721 118.888 24.9315 118.382C26.1641 117.876 27.2316 117.183 28.134 116.302C29.0584 115.422 29.7957 114.387 30.346 113.199C30.9182 111.988 31.2374 110.701 31.3034 109.336V78.566H38.1375V108.874C38.1375 110.304 38.4016 111.647 38.9299 112.902C39.4801 114.134 40.2175 115.213 41.1419 116.137C42.0663 117.062 43.1448 117.799 44.3773 118.349C45.6319 118.877 46.9745 119.141 48.4052 119.141C49.8138 119.141 51.1454 118.877 52.4 118.349C53.6546 117.799 54.7441 117.062 55.6685 116.137C56.6149 115.213 57.3522 114.134 57.8805 112.902C58.4307 111.647 58.7059 110.304 58.7059 108.874V78.566H65.4409V108.874Z" fill="#FFC53D"/>
<path d="M125.33 125.91H76.3689V78.566H125.33V85.3341H83.137V119.141H125.33V125.91ZM119.586 105.638H86.5045V98.8702H119.586V105.638Z" fill="#FFC53D"/>
<path d="M189.478 112.373C189.478 114.266 189.115 116.038 188.389 117.689C187.684 119.318 186.716 120.748 185.483 121.981C184.273 123.191 182.842 124.149 181.192 124.853C179.541 125.557 177.791 125.91 175.942 125.91H143.885V119.141H175.942C176.867 119.141 177.736 118.965 178.55 118.613C179.387 118.261 180.113 117.777 180.729 117.161C181.346 116.544 181.83 115.829 182.182 115.015C182.534 114.178 182.71 113.298 182.71 112.373C182.71 111.449 182.534 110.58 182.182 109.765C181.83 108.951 181.346 108.235 180.729 107.619C180.113 107.003 179.387 106.519 178.55 106.167C177.736 105.814 176.867 105.638 175.942 105.638H143.885V98.8702H169.174C170.098 98.8702 170.968 98.6941 171.782 98.342C172.619 97.9898 173.345 97.5056 173.961 96.8893C174.578 96.273 175.062 95.5577 175.414 94.7434C175.766 93.907 175.942 93.0266 175.942 92.1021C175.942 91.1777 175.766 90.3083 175.414 89.494C175.062 88.6576 174.578 87.9313 173.961 87.315C173.345 86.6987 172.619 86.2145 171.782 85.8623C170.968 85.5102 170.098 85.3341 169.174 85.3341H140.517V125.91H133.749V78.566H169.174C171.023 78.566 172.773 78.9292 174.423 79.6555C176.074 80.3598 177.505 81.3283 178.715 82.5608C179.948 83.7714 180.916 85.202 181.621 86.8528C182.347 88.5035 182.71 90.2533 182.71 92.1021C182.71 93.5328 182.501 94.8864 182.083 96.163C181.665 97.4176 181.103 98.5841 180.399 99.6626C181.72 100.125 182.93 100.774 184.031 101.61C185.153 102.447 186.111 103.415 186.903 104.516C187.717 105.616 188.345 106.838 188.785 108.18C189.247 109.501 189.478 110.899 189.478 112.373Z" fill="#FFC53D"/>
<path d="M278.553 102.238C278.553 105.517 278.025 108.599 276.968 111.482C275.934 114.365 274.459 116.874 272.544 119.009C270.629 121.144 268.329 122.828 265.644 124.061C262.981 125.293 260.02 125.91 256.763 125.91H232.893V119.141H256.763C259.096 119.141 261.187 118.701 263.036 117.821C264.907 116.94 266.48 115.741 267.757 114.222C269.055 112.682 270.046 110.888 270.728 108.841C271.433 106.772 271.785 104.571 271.785 102.238C271.785 99.9047 271.433 97.7147 270.728 95.6678C270.046 93.6208 269.055 91.838 267.757 90.3193C266.48 88.7786 264.907 87.5681 263.036 86.6877C261.187 85.7853 259.096 85.3341 256.763 85.3341H229.525V125.91H222.757V78.566H256.763C260.02 78.566 262.981 79.1933 265.644 80.4479C268.329 81.6804 270.629 83.3752 272.544 85.5322C274.459 87.6671 275.934 90.1763 276.968 93.0596C278.025 95.9209 278.553 98.9803 278.553 102.238Z" fill="#FFC53D"/>
<path d="M336.164 125.91H287.203V78.566H336.164V85.3341H293.971V119.141H336.164V125.91ZM330.419 105.638H297.338V98.8702H330.419V105.638Z" fill="#FFC53D"/>
<path d="M396.846 112.373C396.846 114.266 396.493 116.038 395.789 117.689C395.085 119.318 394.116 120.748 392.884 121.981C391.673 123.191 390.243 124.149 388.592 124.853C386.963 125.557 385.213 125.91 383.342 125.91H342.206V119.141H383.342C384.289 119.141 385.169 118.965 385.984 118.613C386.798 118.261 387.502 117.777 388.097 117.161C388.713 116.544 389.197 115.829 389.549 115.015C389.901 114.178 390.077 113.298 390.077 112.373C390.077 111.449 389.901 110.58 389.549 109.765C389.197 108.951 388.713 108.235 388.097 107.619C387.502 107.003 386.798 106.519 385.984 106.167C385.169 105.814 384.289 105.638 383.342 105.638H355.742C353.893 105.638 352.143 105.286 350.492 104.582C348.842 103.878 347.4 102.92 346.168 101.71C344.957 100.477 343.988 99.0353 343.262 97.3846C342.558 95.7338 342.206 93.973 342.206 92.1021C342.206 90.2533 342.558 88.5035 343.262 86.8528C343.988 85.202 344.957 83.7714 346.168 82.5608C347.4 81.3283 348.842 80.3598 350.492 79.6555C352.143 78.9292 353.893 78.566 355.742 78.566H393.478V85.3341H355.742C354.817 85.3341 353.937 85.5102 353.101 85.8623C352.286 86.2145 351.571 86.6987 350.955 87.315C350.338 87.9313 349.854 88.6576 349.502 89.494C349.15 90.3083 348.974 91.1777 348.974 92.1021C348.974 93.0266 349.15 93.907 349.502 94.7434C349.854 95.5577 350.338 96.273 350.955 96.8893C351.571 97.5056 352.286 97.9898 353.101 98.342C353.937 98.6941 354.817 98.8702 355.742 98.8702H383.342C385.213 98.8702 386.963 99.2334 388.592 99.9597C390.243 100.664 391.673 101.632 392.884 102.865C394.116 104.076 395.085 105.506 395.789 107.157C396.493 108.786 396.846 110.525 396.846 112.373Z" fill="#FFC53D"/>
<path d="M411.57 125.91H404.802V78.566H411.57V125.91Z" fill="#FFC53D"/>
<path d="M472.516 125.91H442.043C438.764 125.91 435.781 125.293 433.096 124.061C430.411 122.828 428.111 121.144 426.196 119.009C424.303 116.874 422.839 114.365 421.805 111.482C420.77 108.599 420.253 105.517 420.253 102.238C420.253 98.9803 420.77 95.9209 421.805 93.0596C422.839 90.1763 424.303 87.6671 426.196 85.5322C428.111 83.3752 430.411 81.6804 433.096 80.4479C435.781 79.1933 438.764 78.566 442.043 78.566H472.516V85.3341H442.043C439.71 85.3341 437.608 85.7853 435.737 86.6877C433.888 87.5681 432.315 88.7786 431.016 90.3193C429.74 91.838 428.749 93.6208 428.045 95.6678C427.362 97.7147 427.021 99.9047 427.021 102.238C427.021 104.571 427.362 106.772 428.045 108.841C428.749 110.888 429.74 112.682 431.016 114.222C432.315 115.741 433.888 116.94 435.737 117.821C437.608 118.701 439.71 119.141 442.043 119.141H465.748V105.638H437.091V98.8702H472.516V125.91Z" fill="#FFC53D"/>
<path d="M489.354 125.91H482.586V78.566H485.953C488.154 78.566 490.487 78.8521 492.952 79.4244C495.439 79.9967 497.97 80.822 500.546 81.9005C503.121 82.979 505.685 84.2886 508.238 85.8293C510.813 87.348 513.3 89.0758 515.7 91.0127C518.099 92.9495 520.355 95.0625 522.468 97.3515C524.581 99.6186 526.473 102.04 528.146 104.615V78.566H534.914V125.91H528.146C528.146 122.432 527.541 119.086 526.33 115.873C525.12 112.637 523.502 109.589 521.477 106.728C519.452 103.867 517.119 101.236 514.478 98.8372C511.837 96.4161 509.075 94.2921 506.191 92.4653C503.33 90.6385 500.447 89.1418 497.541 87.9753C494.636 86.7867 491.907 85.9944 489.354 85.5982V125.91Z" fill="#FFC53D"/>
<path d="M595.266 125.91H546.305V78.566H595.266V85.3341H553.073V119.141H595.266V125.91ZM589.521 105.638H556.44V98.8702H589.521V105.638Z" fill="#FFC53D"/>
<path d="M658.324 125.91H649.179L634.983 112.373H614.249V105.704H641.421C642.829 105.704 644.15 105.44 645.383 104.912C646.615 104.362 647.683 103.624 648.585 102.7C649.509 101.776 650.236 100.697 650.764 99.4645C651.292 98.2099 651.556 96.8783 651.556 95.4697C651.556 94.061 651.292 92.7404 650.764 91.5079C650.236 90.2753 649.509 89.2078 648.585 88.3054C647.683 87.381 646.615 86.6547 645.383 86.1264C644.15 85.5982 642.829 85.3341 641.421 85.3341H610.453V125.91H603.685V78.566H641.421C643.754 78.566 645.944 79.0172 647.991 79.9196C650.038 80.8 651.82 82.0106 653.339 83.5513C654.88 85.07 656.09 86.8528 656.971 88.8997C657.873 90.9466 658.324 93.1366 658.324 95.4697C658.324 97.5826 657.961 99.5856 657.235 101.478C656.509 103.349 655.507 105.033 654.231 106.53C652.954 108.004 651.446 109.237 649.707 110.227C647.991 111.196 646.131 111.845 644.128 112.175L658.324 125.91Z" fill="#FFC53D"/>
<path d="M133.088 275.91H310.678V236.466H133.088C119.491 236.466 107.241 233.901 96.3383 228.77C85.5636 223.639 76.3923 216.649 68.8243 207.798C61.3846 198.819 55.6125 188.365 51.5078 176.436C48.2161 166.454 46.2869 155.946 45.7201 144.91H6.23516C6.88184 161.439 9.85118 177.078 15.1432 191.828C21.1719 208.632 29.7019 223.255 40.7331 235.697C51.8926 248.139 65.2969 257.952 80.9459 265.135C96.5949 272.318 113.975 275.91 133.088 275.91Z" fill="#5B5BD6"/>
<path d="M26.0545 60.9095C30.3213 53.5931 35.2142 46.8224 40.7331 40.5976C51.8926 28.0271 65.2969 18.1503 80.9459 10.9671C96.5949 3.6557 113.975 0 133.088 0H310.678V39.4431H133.088C119.491 39.4431 107.241 42.0727 96.3383 47.3318C88.8076 50.9178 82.0602 55.4437 76.096 60.9095H26.0545Z" fill="#5B5BD6"/>
<path d="M600.079 275.91H653.375L570.641 195.869C582.314 193.945 593.152 190.161 603.158 184.517C613.291 178.745 622.077 171.562 629.517 162.967C634.271 157.393 638.371 151.374 641.816 144.91H591.981C587.805 148.352 583.128 151.229 577.952 153.54C570.769 156.618 563.073 158.157 554.864 158.157H396.514V197.023H517.345L600.079 275.91Z" fill="#5B5BD6"/>
<path d="M600.461 60.9095C599.252 59.4654 597.971 58.0821 596.616 56.7596C591.357 51.3723 585.136 47.1394 577.952 44.0609C570.769 40.9824 563.073 39.4431 554.864 39.4431H374.387V60.9095H334.944V0H554.864C568.46 0 581.223 2.62954 593.152 7.88863C605.082 13.0194 615.471 20.0743 624.322 29.0532C633.301 37.9039 640.356 48.2938 645.487 60.2229C645.588 60.4515 645.687 60.6804 645.786 60.9095H600.461Z" fill="#5B5BD6"/>
<path d="M334.944 144.91H374.387V275.91H334.944V144.91Z" fill="#5B5BD6"/>
</g>
<defs>
<filter id="filter0_di_364_159" x="0" y="-4" width="662.324" height="287.91" filterUnits="userSpaceOnUse" color-interpolation-filters="sRGB">
<feFlood flood-opacity="0" result="BackgroundImageFix"/>
<feColorMatrix in="SourceAlpha" type="matrix" values="0 0 0 0 0 0 0 0 0 0 0 0 0 0 0 0 0 0 127 0" result="hardAlpha"/>
<feOffset dy="4"/>
<feGaussianBlur stdDeviation="2"/>
<feComposite in2="hardAlpha" operator="out"/>
<feColorMatrix type="matrix" values="0 0 0 0 0 0 0 0 0 0 0 0 0 0 0 0 0 0 0.25 0"/>
<feBlend mode="normal" in2="BackgroundImageFix" result="effect1_dropShadow_364_159"/>
<feBlend mode="normal" in="SourceGraphic" in2="effect1_dropShadow_364_159" result="shape"/>
<feColorMatrix in="SourceAlpha" type="matrix" values="0 0 0 0 0 0 0 0 0 0 0 0 0 0 0 0 0 0 127 0" result="hardAlpha"/>
<feOffset dy="-8"/>
<feGaussianBlur stdDeviation="2"/>
<feComposite in2="hardAlpha" operator="arithmetic" k2="-1" k3="1"/>
<feColorMatrix type="matrix" values="0 0 0 0 0 0 0 0 0 0 0 0 0 0 0 0 0 0 0.25 0"/>
<feBlend mode="normal" in2="shape" result="effect2_innerShadow_364_159"/>
</filter>
</defs>
</svg>
