<svg width="138" height="139" viewBox="0 0 138 139" fill="none" xmlns="http://www.w3.org/2000/svg">
<mask id="mask0_96_149" style="mask-type:alpha" maskUnits="userSpaceOnUse" x="0" y="0" width="138" height="139">
<rect x="0.535156" y="0.955811" width="137.389" height="137.389" fill="#D9D9D9"/>
</mask>
<g mask="url(#mask0_96_149)">
<path d="M69.2295 77.6652L41.1792 105.715C40.1297 106.765 38.794 107.29 37.172 107.29C35.5501 107.29 34.2143 106.765 33.1648 105.715C32.1153 104.666 31.5906 103.33 31.5906 101.708C31.5906 100.086 32.1153 98.7506 33.1648 97.7011L61.2152 69.6508L33.1648 41.6005C32.1153 40.551 31.5906 39.2152 31.5906 37.5933C31.5906 35.9713 32.1153 34.6356 33.1648 33.5861C34.2143 32.5366 35.5501 32.0118 37.172 32.0118C38.794 32.0118 40.1297 32.5366 41.1792 33.5861L69.2295 61.6364L97.2799 33.5861C98.3294 32.5366 99.6651 32.0118 101.287 32.0118C102.909 32.0118 104.245 32.5366 105.294 33.5861C106.344 34.6356 106.868 35.9713 106.868 37.5933C106.868 39.2152 106.344 40.551 105.294 41.6005L77.2439 69.6508L105.294 97.7011C106.344 98.7506 106.868 100.086 106.868 101.708C106.868 103.33 106.344 104.666 105.294 105.715C104.245 106.765 102.909 107.29 101.287 107.29C99.6651 107.29 98.3294 106.765 97.2799 105.715L69.2295 77.6652Z" fill="#E0DFFE"/>
</g>
</svg>
