<svg width="138" height="139" viewBox="0 0 138 139" fill="none" xmlns="http://www.w3.org/2000/svg">
<path d="M80.957 17.9557V40.854C80.957 42.3723 81.5602 43.8283 82.6337 44.9019C83.7073 45.9755 85.1634 46.5786 86.6816 46.5786H109.58" stroke="#E0DFFE" stroke-width="9" stroke-linecap="round" stroke-linejoin="round"/>
<path d="M98.1305 120.998H40.8847C37.8482 120.998 34.9361 119.792 32.7889 117.645C30.6418 115.498 29.4355 112.586 29.4355 109.549V29.4049C29.4355 26.3683 30.6418 23.4562 32.7889 21.3091C34.9361 19.1619 37.8482 17.9557 40.8847 17.9557H80.9568L109.58 46.5786V109.549C109.58 112.586 108.373 115.498 106.226 117.645C104.079 119.792 101.167 120.998 98.1305 120.998Z" stroke="#E0DFFE" stroke-width="9" stroke-linecap="round" stroke-linejoin="round"/>
<path d="M63.7831 72.3392C63.7831 70.0618 62.8784 67.8777 61.2681 66.2674C59.6577 64.657 57.4736 63.7523 55.1962 63.7523C52.9189 63.7523 50.7348 64.657 49.1244 66.2674C47.5141 67.8777 46.6094 70.0618 46.6094 72.3392V89.5129C46.6094 91.7903 47.5141 93.9744 49.1244 95.5848C50.7348 97.1951 52.9189 98.0998 55.1962 98.0998C57.4736 98.0998 59.6577 97.1951 61.2681 95.5848C62.8784 93.9744 63.7831 91.7903 63.7831 89.5129M75.2323 63.7523L83.8192 98.0998L92.406 63.7523" stroke="#E0DFFE" stroke-width="9" stroke-linecap="round" stroke-linejoin="round"/>
</svg>
