<svg width="138" height="139" viewBox="0 0 138 139" fill="none" xmlns="http://www.w3.org/2000/svg">
<mask id="mask0_159_66" style="mask-type:alpha" maskUnits="userSpaceOnUse" x="0" y="0" width="138" height="139">
<rect x="0.114746" y="0.955688" width="137.39" height="137.39" fill="#D9D9D9"/>
</mask>
<g mask="url(#mask0_159_66)">
<path d="M68.8098 126.897C60.8908 126.897 53.4488 125.394 46.4839 122.388C39.519 119.383 33.4605 115.304 28.3084 110.152C23.1562 105 19.0775 98.9415 16.0721 91.9766C13.0667 85.0117 11.564 77.5697 11.564 69.6507C11.564 61.7317 13.0667 54.2898 16.0721 47.3249C19.0775 40.36 23.1562 34.3014 28.3084 29.1493C33.4605 23.9972 39.519 19.9184 46.4839 16.913C53.4488 13.9076 60.8908 12.4049 68.8098 12.4049C76.7288 12.4049 84.1708 13.9076 91.1357 16.913C98.1006 19.9184 104.159 23.9972 109.311 29.1493C114.463 34.3014 118.542 40.36 121.548 47.3249C124.553 54.2898 126.056 61.7317 126.056 69.6507V77.9514C126.056 83.5806 124.124 88.3749 120.26 92.3344C116.395 96.2939 111.649 98.2737 106.02 98.2737C102.68 98.2737 99.5317 97.5581 96.574 96.1269C93.6163 94.6958 91.1357 92.6445 89.1321 89.973C86.3652 92.7399 83.2405 94.8151 79.7581 96.1985C76.2756 97.5819 72.6262 98.2737 68.8098 98.2737C60.8908 98.2737 54.1406 95.4829 48.5591 89.9015C42.9776 84.32 40.1869 77.5697 40.1869 69.6507C40.1869 61.7317 42.9776 54.9815 48.5591 49.4C54.1406 43.8186 60.8908 41.0278 68.8098 41.0278C76.7288 41.0278 83.479 43.8186 89.0605 49.4C94.642 54.9815 97.4327 61.7317 97.4327 69.6507V77.9514C97.4327 80.432 98.2437 82.5311 99.8657 84.2484C101.488 85.9658 103.539 86.8245 106.02 86.8245C108.5 86.8245 110.552 85.9658 112.174 84.2484C113.795 82.5311 114.606 80.432 114.606 77.9514V69.6507C114.606 56.8658 110.17 46.0368 101.297 37.1637C92.4237 28.2906 81.5947 23.8541 68.8098 23.8541C56.0249 23.8541 45.1959 28.2906 36.3228 37.1637C27.4497 46.0368 23.0131 56.8658 23.0131 69.6507C23.0131 82.4356 27.4497 93.2646 36.3228 102.138C45.1959 111.011 56.0249 115.447 68.8098 115.447H91.7081C93.3301 115.447 94.6897 115.996 95.7869 117.093C96.8841 118.19 97.4327 119.55 97.4327 121.172C97.4327 122.794 96.8841 124.154 95.7869 125.251C94.6897 126.348 93.3301 126.897 91.7081 126.897H68.8098ZM68.8098 86.8245C73.5803 86.8245 77.6352 85.1548 80.9745 81.8155C84.3139 78.4761 85.9836 74.4212 85.9836 69.6507C85.9836 64.8803 84.3139 60.8253 80.9745 57.486C77.6352 54.1467 73.5803 52.477 68.8098 52.477C64.0393 52.477 59.9844 54.1467 56.6451 57.486C53.3057 60.8253 51.6361 64.8803 51.6361 69.6507C51.6361 74.4212 53.3057 78.4761 56.6451 81.8155C59.9844 85.1548 64.0393 86.8245 68.8098 86.8245Z" fill="#E0DFFE"/>
</g>
</svg>
