<svg width="138" height="139" viewBox="0 0 138 139" fill="none" xmlns="http://www.w3.org/2000/svg">
<path d="M36.426 36.3107C34.9949 32.6584 35.0521 28.4852 35.6876 24.6669C40.0622 25.9777 44.1708 28.0514 47.8237 30.7922C49.4266 32.0173 51.5275 32.4123 53.4853 31.8226C58.509 30.3196 63.7265 29.5635 68.9703 29.5786C74.4716 29.5786 79.6982 30.3801 84.4438 31.8169C86.4016 32.4123 88.5026 32.0116 90.0997 30.7865C93.7509 28.0462 97.8575 25.9726 102.23 24.6612C102.866 28.4795 102.917 32.6527 101.497 36.2993C100.639 38.4975 101.068 41.0278 102.688 42.8253C106.833 47.4221 109.042 52.7059 109.042 58.2015C109.042 70.3033 97.7649 82.1704 79.6524 85.7826C75.1185 86.687 73.3496 92.3945 76.8187 95.6632C79.0456 97.7584 80.4194 100.712 80.4194 103.998V121.172C80.4194 122.69 81.0226 124.146 82.0961 125.22C83.1697 126.293 84.6258 126.897 86.144 126.897C87.6623 126.897 89.1184 126.293 90.1919 125.22C91.2655 124.146 91.8686 122.69 91.8686 121.172V103.998C91.8686 100.735 91.1817 97.6325 89.9566 94.8217C107.228 88.828 120.492 75.3352 120.492 58.2015C120.492 50.4905 117.721 43.4035 113.124 37.4671C114.326 32.7729 114.217 28.0444 113.759 24.415C113.353 21.1635 112.786 16.9044 110.496 14.3627C107.09 10.5902 101.452 12.8113 97.4444 14.1795C93.1457 15.634 89.056 17.6452 85.2796 20.1617C79.9502 18.8016 74.4705 18.1188 68.9703 18.1294C63.2801 18.1294 57.7902 18.845 52.6495 20.1674C48.8731 17.6509 44.7834 15.6397 40.4848 14.1852C36.4776 12.8113 30.8331 10.5902 27.427 14.3627C25.0914 16.9502 24.6048 20.8715 24.1869 24.2032L24.1583 24.4208C23.7003 28.0559 23.5972 32.7901 24.7994 37.49C20.2197 43.4207 17.449 50.4962 17.449 58.2015C17.449 75.3295 30.7129 88.828 47.984 94.8217C46.7339 97.6799 46.0831 100.764 46.072 103.884L45.1102 104.078C41.0057 104.645 38.3781 104.136 36.592 103.38C32.2414 101.537 29.9973 96.894 27.261 93.3447C25.5551 91.1408 23.0706 88.3873 19.258 87.1164C18.5446 86.8788 17.7914 86.7841 17.0413 86.8377C16.2913 86.8912 15.5592 87.092 14.8867 87.4284C13.5287 88.108 12.4962 89.2992 12.0164 90.7401C11.5366 92.1809 11.6489 93.7533 12.3285 95.1113C13.008 96.4694 14.1992 97.5019 15.6401 97.9817C18.8344 99.0464 21.0441 104.519 23.0706 106.946C25.2059 109.511 28.0452 112.19 32.1154 113.919C36.0196 115.579 40.605 116.169 46.072 115.499V121.172C46.072 122.69 46.6751 124.146 47.7486 125.22C48.8222 126.293 50.2783 126.897 51.7965 126.897C53.3148 126.897 54.7709 126.293 55.8444 125.22C56.918 124.146 57.5211 122.69 57.5211 121.172V103.998C57.5211 100.712 58.895 97.7584 61.1219 95.6632C64.5967 92.3887 62.8221 86.687 58.2882 85.7826C40.1699 82.1704 28.8982 70.3033 28.8982 58.2015C28.8982 52.7174 31.1022 47.4336 35.241 42.8367C36.8611 41.0392 37.2847 38.509 36.426 36.3107Z" fill="#E0DFFE"/>
</svg>
