<svg width="138" height="139" viewBox="0 0 138 139" fill="none" xmlns="http://www.w3.org/2000/svg">
<path d="M103.058 18.1294C107.613 18.1294 111.981 19.9388 115.202 23.1595C118.423 26.3802 120.232 30.7484 120.232 35.3031V103.998C120.232 108.553 118.423 112.921 115.202 116.142C111.981 119.363 107.613 121.172 103.058 121.172H34.3632C29.8084 121.172 25.4402 119.363 22.2195 116.142C18.9988 112.921 17.1895 108.553 17.1895 103.998V35.3031C17.1895 30.7484 18.9988 26.3802 22.2195 23.1595C25.4402 19.9388 29.8084 18.1294 34.3632 18.1294H103.058ZM103.058 29.5786H34.3632C32.8449 29.5786 31.3889 30.1817 30.3153 31.2553C29.2417 32.3288 28.6386 33.7849 28.6386 35.3031V103.998C28.6386 105.516 29.2417 106.972 30.3153 108.046C31.3889 109.12 32.8449 109.723 34.3632 109.723H103.058C104.576 109.723 106.033 109.12 107.106 108.046C108.18 106.972 108.783 105.516 108.783 103.998V35.3031C108.783 33.7849 108.18 32.3288 107.106 31.2553C106.033 30.1817 104.576 29.5786 103.058 29.5786ZM45.8124 58.2015C47.2145 58.2017 48.5678 58.7164 49.6156 59.6482C50.6634 60.5799 51.3328 61.8638 51.4969 63.2563L51.537 63.9261V92.549C51.5353 94.008 50.9766 95.4114 49.975 96.4724C48.9734 97.5334 47.6044 98.1719 46.1479 98.2574C44.6913 98.3429 43.257 97.869 42.1381 96.9325C41.0193 95.996 40.3002 94.6676 40.1279 93.2188L40.0878 92.549V63.9261C40.0878 62.4078 40.6909 60.9517 41.7645 59.8782C42.838 58.8046 44.2941 58.2015 45.8124 58.2015ZM62.9861 52.4769C64.3268 52.4767 65.625 52.947 66.6544 53.8059C67.6838 54.6648 68.3791 55.8578 68.6191 57.1768C69.771 56.5088 70.962 55.9104 72.1855 55.385C76.0038 53.7535 81.7227 52.8547 86.8863 54.4748C89.594 55.3335 92.3132 56.9363 94.3282 59.667C96.1315 62.0999 97.1046 65.0595 97.2993 68.3855L97.3336 69.6506V92.549C97.332 94.008 96.7733 95.4114 95.7717 96.4724C94.7701 97.5334 93.4011 98.1719 91.9445 98.2574C90.488 98.3429 89.0537 97.869 87.9348 96.9325C86.8159 95.996 86.0969 94.6676 85.9245 93.2188L85.8845 92.549V69.6506C85.8845 67.7615 85.4265 66.8799 85.1288 66.4735C84.7015 65.942 84.1127 65.5642 83.4515 65.3973C81.4593 64.7676 78.5913 65.0996 76.685 65.9125C73.8228 67.1376 71.2009 69.061 69.4148 70.8414L68.7107 71.597V92.549C68.7091 94.008 68.1504 95.4114 67.1488 96.4724C66.1471 97.5334 64.7782 98.1719 63.3216 98.2574C61.865 98.3429 60.4308 97.869 59.3119 96.9325C58.193 95.996 57.4739 94.6676 57.3016 93.2188L57.2615 92.549V58.2015C57.2615 56.6832 57.8647 55.2272 58.9382 54.1536C60.0118 53.08 61.4679 52.4769 62.9861 52.4769ZM45.8124 41.0277C47.3306 41.0277 48.7867 41.6309 49.8603 42.7044C50.9338 43.778 51.537 45.2341 51.537 46.7523C51.537 48.2706 50.9338 49.7266 49.8603 50.8002C48.7867 51.8738 47.3306 52.4769 45.8124 52.4769C44.2941 52.4769 42.838 51.8738 41.7645 50.8002C40.6909 49.7266 40.0878 48.2706 40.0878 46.7523C40.0878 45.2341 40.6909 43.778 41.7645 42.7044C42.838 41.6309 44.2941 41.0277 45.8124 41.0277Z" fill="#E0DFFE"/>
</svg>
