<svg width="139" height="139" viewBox="0 0 139 139" fill="none" xmlns="http://www.w3.org/2000/svg">
<path d="M46.6522 41.0278C39.061 41.0278 31.7806 44.0434 26.4128 49.4112C21.0449 54.7791 18.0293 62.0594 18.0293 69.6507C18.0293 77.242 21.0449 84.5223 26.4128 89.8902C31.7806 95.258 39.061 98.2736 46.6522 98.2736C54.2435 98.2736 61.5238 95.258 66.8917 89.8902C72.2595 84.5223 75.2751 77.242 75.2751 69.6507C75.2751 62.0594 72.2595 54.7791 66.8917 49.4112C61.5238 44.0434 54.2435 41.0278 46.6522 41.0278ZM46.6522 29.5786C53.2141 29.5747 59.6763 31.1838 65.4701 34.2644C71.2639 37.3449 76.2116 41.8025 79.8777 47.2447L80.0723 46.8497C82.9633 41.0679 88.0238 35.3032 95.3112 35.3032C102.072 35.3032 106.915 40.2607 109.892 45.596C110.109 45.3098 110.344 45.0235 110.579 44.7545C112.239 42.894 114.798 41.0278 118.21 41.0278C121.621 41.0278 124.186 42.894 125.835 44.7488C127.495 46.6207 128.726 49.0021 129.642 51.4465C131.491 56.3868 132.521 62.8213 132.521 69.6507C132.521 76.4801 131.491 82.9146 129.642 87.8549C128.726 90.2993 127.495 92.6807 125.835 94.5526C124.186 96.4074 121.621 98.2736 118.21 98.2736C114.798 98.2736 112.233 96.4074 110.584 94.5526C110.343 94.2787 110.112 93.9961 109.892 93.7054C106.915 99.0407 102.066 103.998 95.3112 103.998C88.0238 103.998 82.9633 98.2393 80.0723 92.4517C80.0068 92.3204 79.9419 92.1887 79.8777 92.0567C76.0109 97.7902 70.7262 102.425 64.5374 105.511C58.3486 108.598 51.4665 110.029 44.5604 109.668C37.6543 109.307 30.9593 107.164 25.1266 103.449C19.2938 99.7332 14.5218 94.5716 11.2748 88.4657C8.02773 82.3599 6.41611 75.5176 6.59667 68.6044C6.77723 61.6912 8.74383 54.9424 12.3052 49.0144C15.8666 43.0864 20.9015 38.1809 26.9202 34.7751C32.939 31.3693 39.7367 29.5791 46.6522 29.5786ZM115.347 69.6507C115.347 74.8773 115.805 80.7163 118.21 85.4735C120.614 80.722 121.072 74.883 121.072 69.6507C121.072 64.4242 120.614 58.5851 118.21 53.828C115.805 58.5794 115.347 64.4184 115.347 69.6507ZM103.898 69.6507C103.898 65.3 102.679 46.7524 95.3112 46.7524C87.9436 46.7524 86.7243 65.3 86.7243 69.6507C86.7243 74.0014 87.9436 92.549 95.3112 92.549C102.679 92.549 103.898 74.0014 103.898 69.6507Z" fill="#E0DFFE"/>
</svg>
