<svg width="139" height="139" viewBox="0 0 139 139" fill="none" xmlns="http://www.w3.org/2000/svg">
<mask id="mask0_96_148" style="mask-type:alpha" maskUnits="userSpaceOnUse" x="0" y="0" width="139" height="139">
<rect x="0.955811" y="0.955811" width="137.389" height="137.389" fill="#D9D9D9"/>
</mask>
<g mask="url(#mask0_96_148)">
<path d="M23.8537 103.998C22.2317 103.998 20.8722 103.449 19.775 102.352C18.6778 101.255 18.1292 99.8953 18.1292 98.2733C18.1292 96.6514 18.6778 95.2918 19.775 94.1946C20.8722 93.0974 22.2317 92.5488 23.8537 92.5488H115.447C117.069 92.5488 118.428 93.0974 119.525 94.1946C120.623 95.2918 121.171 96.6514 121.171 98.2733C121.171 99.8953 120.623 101.255 119.525 102.352C118.428 103.449 117.069 103.998 115.447 103.998H23.8537ZM23.8537 75.3751C22.2317 75.3751 20.8722 74.8265 19.775 73.7293C18.6778 72.6321 18.1292 71.2725 18.1292 69.6506C18.1292 68.0286 18.6778 66.669 19.775 65.5718C20.8722 64.4746 22.2317 63.926 23.8537 63.926H115.447C117.069 63.926 118.428 64.4746 119.525 65.5718C120.623 66.669 121.171 68.0286 121.171 69.6506C121.171 71.2725 120.623 72.6321 119.525 73.7293C118.428 74.8265 117.069 75.3751 115.447 75.3751H23.8537ZM23.8537 46.7523C22.2317 46.7523 20.8722 46.2037 19.775 45.1065C18.6778 44.0093 18.1292 42.6497 18.1292 41.0278C18.1292 39.4058 18.6778 38.0462 19.775 36.949C20.8722 35.8518 22.2317 35.3032 23.8537 35.3032H115.447C117.069 35.3032 118.428 35.8518 119.525 36.949C120.623 38.0462 121.171 39.4058 121.171 41.0278C121.171 42.6497 120.623 44.0093 119.525 45.1065C118.428 46.2037 117.069 46.7523 115.447 46.7523H23.8537Z" fill="#E0DFFE"/>
</g>
</svg>
