<svg width="139" height="139" viewBox="0 0 139 139" fill="none" xmlns="http://www.w3.org/2000/svg">
<mask id="mask0_159_78" style="mask-type:alpha" maskUnits="userSpaceOnUse" x="0" y="0" width="139" height="139">
<rect x="0.695068" y="0.955688" width="137.39" height="137.39" fill="#D9D9D9"/>
</mask>
<g mask="url(#mask0_159_78)">
<path d="M114.901 121.172C102.974 121.172 91.1913 118.572 79.5513 113.372C67.9113 108.172 57.3208 100.802 47.7798 91.2609C38.2389 81.72 30.8685 71.1295 25.6686 59.4895C20.4688 47.8495 17.8689 36.0664 17.8689 24.1402C17.8689 22.4228 18.4414 20.9917 19.5863 19.8468C20.7312 18.7019 22.1623 18.1294 23.8797 18.1294H47.0643C48.4 18.1294 49.5926 18.5826 50.6421 19.489C51.6916 20.3954 52.3118 21.4687 52.5026 22.7091L56.2236 42.7451C56.4144 44.2717 56.3667 45.5597 56.0805 46.6092C55.7943 47.6587 55.2695 48.5651 54.5062 49.3284L40.6241 63.3536C42.5323 66.8838 44.7983 70.2947 47.4221 73.5863C50.0458 76.8779 52.932 80.0503 56.0805 83.1034C59.0382 86.0611 62.139 88.8041 65.3829 91.3325C68.6269 93.8609 72.0616 96.1745 75.6872 98.2736L89.14 84.8208C89.9986 83.9621 91.1197 83.3181 92.5032 82.8887C93.8866 82.4594 95.2462 82.3401 96.5819 82.531L116.332 86.5382C117.667 86.9198 118.765 87.6115 119.623 88.6133C120.482 89.6151 120.911 90.7362 120.911 91.9765V115.161C120.911 116.878 120.339 118.31 119.194 119.455C118.049 120.599 116.618 121.172 114.901 121.172ZM35.1858 52.4769L44.6313 43.0313L42.1984 29.5786H29.4612C29.9382 33.4904 30.6061 37.3545 31.4648 41.1708C32.3235 44.9872 33.5638 48.7559 35.1858 52.4769ZM86.4208 103.712C90.1418 105.334 93.9343 106.622 97.7984 107.576C101.662 108.53 105.55 109.15 109.462 109.436V96.8424L96.0095 94.1232L86.4208 103.712Z" fill="#E0DFFE"/>
</g>
</svg>
